<svg width="20" height="20" viewBox="0 0 20 20" fill="none" xmlns="http://www.w3.org/2000/svg">
<path d="M11.6619 2V5.30281H15.0383V2H11.6619ZM11.6619 6.75426V7.59629C12.0584 7.50191 12.4694 7.44653 12.8935 7.44653C13.6553 7.44653 14.3799 7.61043 15.0383 7.9006V6.75426H11.6619ZM2.03088 6.80524V10.108H5.4073V6.80524H2.03088ZM6.84641 6.80524V10.108H8.2689C8.74447 9.30592 9.41777 8.63644 10.2228 8.16985V6.80524H6.84641ZM2 11.6105V14.9133H5.37642V11.6105H2ZM6.83058 11.6105V14.9133H7.91327C7.65371 14.2801 7.50776 13.5881 7.50776 12.8636C7.50776 12.4318 7.56462 12.0137 7.66057 11.6105H6.83058Z" fill="currentColor"/>
<path d="M13.0958 8.1346C10.3984 8.1346 8.19155 10.3543 8.19155 13.0673C8.19155 15.7803 10.3984 18 13.0958 18C15.7931 18 18 15.7803 18 13.0673C18 10.3543 15.7931 8.1346 13.0958 8.1346ZM15.1556 15.139L12.6054 13.5606V10.6009H13.341V13.166L15.5479 14.4978L15.1556 15.139Z" fill="currentColor"/>
</svg>
