<svg width="20" height="20" viewBox="0 0 20 20" xmlns="http://www.w3.org/2000/svg">
  <path d="M6.46437 9.58984H7.43735V10.2797H8.16043V11.2422H6.95086C6.68218 11.2422 6.46437 11.0268 6.46437 10.761V9.58984ZM11.0509 10.2797V11.2422H8.63267V10.2797H11.0509ZM13.9413 10.2797V11.2422H11.5231V10.2797H13.9413ZM16.8317 10.2797V11.2422H14.4135V10.2797H16.8317ZM18.027 9.58984H19V10.761C19 11.0268 18.7822 11.2422 18.5135 11.2422H17.3049V10.2797H18.027V9.58984ZM6.46437 6.83024H7.43735V9.17252H6.46437V6.83024ZM18.027 6.83024H19V9.17252H18.027V6.83024ZM6.46437 4.0697H7.43735V6.41292H6.46437V4.0697ZM18.027 4.0697H19V6.41292H18.027V4.0697ZM6.46437 2.48124C6.46437 2.21546 6.68218 2 6.95086 2H8.16043V2.96248H7.43735V3.65238H6.46437V2.48124ZM18.027 2.96248H17.3049V2H18.5135C18.7822 2 19 2.21546 19 2.48124V3.65238H18.027V2.96248ZM11.0509 2V2.96248H8.63267V2H11.0509ZM13.9413 2V2.96248H11.5231V2H13.9413ZM16.8317 2V2.96248H14.4135V2H16.8317Z" fill="currentColor" />
  <path d="M13.5366 17.0375V18H1V17.0375H13.5366Z" fill="currentColor" />
  <path d="M3.73757 12.1394H4.71054V12.8293H5.43362V13.7918H4.22405C3.95537 13.7918 3.73757 13.5763 3.73757 13.3106V12.1394ZM8.32405 12.8293V13.7918H5.90586V12.8293H8.32405ZM11.2145 12.8293V13.7918H8.79628V12.8293H11.2145ZM14.1049 12.8293V13.7918H11.6867V12.8293H14.1049ZM15.3002 12.1394H16.2732V13.3106C16.2732 13.5763 16.0554 13.7918 15.7867 13.7918H14.5781V12.8293H15.3002V12.1394ZM3.73757 9.37982H4.71054V11.7221H3.73757V9.37982ZM15.3002 9.37982H16.2732V11.7221H15.3002V9.37982ZM3.73757 6.61928H4.71054V8.9625H3.73757V6.61928ZM15.3002 6.61928H16.2732V8.9625H15.3002V6.61928ZM3.73757 5.03082C3.73757 4.76504 3.95537 4.54958 4.22405 4.54958H5.43362V5.51206H4.71054V6.20196H3.73757V5.03082ZM15.3002 5.51206H14.5781V4.54958H15.7867C16.0554 4.54958 16.2732 4.76504 16.2732 5.03082V6.20196H15.3002V5.51206ZM8.32405 4.54958V5.51206H5.90586V4.54958H8.32405ZM11.2145 4.54958V5.51206H8.79628V4.54958H11.2145ZM14.1049 4.54958V5.51206H11.6867V4.54958H14.1049Z" fill="currentColor" />
  <path d="M13.0601 7.09913C13.3288 7.09913 13.5466 7.31459 13.5466 7.58037V15.8601C13.5466 16.1259 13.3288 16.3414 13.0601 16.3414H1.4975C1.22882 16.3414 1.01101 16.1259 1.01101 15.8601V7.58037C1.01101 7.31459 1.22882 7.09913 1.4975 7.09913H13.0601ZM1.98399 15.3789H12.5737V8.06161H1.98399V15.3789Z" fill="currentColor" />
  <path fill-rule="evenodd" clip-rule="evenodd" d="M1.4189 7.61157H12.9816V15.8915H1.4189V7.61157Z" fill="currentColor" />
</svg>
