<svg width="20" height="20" viewBox="0 0 20 20" xmlns="http://www.w3.org/2000/svg">
  <path d="M6.26884 10.6162H7.26884V11.3545H8.03349V12.3545H6.76884C6.49281 12.3545 6.26902 12.1305 6.26884 11.8545V10.6162ZM11.0911 11.3545V12.3545H8.56181V11.3545H11.0911ZM14.1487 11.3545V12.3545H11.6204V11.3545H14.1487ZM17.2063 11.3545V12.3545H14.678V11.3545H17.2063ZM18.5003 10.6162H19.5003V11.8545C19.5001 12.1304 19.2762 12.3543 19.0003 12.3545H17.7356V11.3545H18.5003V10.6162ZM6.26884 7.66504H7.26884V10.1406H6.26884V7.66504ZM18.5003 7.66504H19.5003V10.1406H18.5003V7.66504ZM6.26884 4.71387H7.26884V7.18945H6.26884V4.71387ZM18.5003 4.71387H19.5003V7.18945H18.5003V4.71387ZM6.26884 3C6.26884 2.72386 6.49269 2.5 6.76884 2.5H8.03349V3.5H7.26884V4.23828H6.26884V3ZM18.5003 3.5H17.7356V2.5H19.0003C19.2763 2.50015 19.5003 2.72395 19.5003 3V4.23828H18.5003V3.5ZM11.0911 2.5V3.5H8.56181V2.5H11.0911ZM14.1487 2.5V3.5H11.6204V2.5H14.1487ZM17.2063 2.5V3.5H14.678V2.5H17.2063Z" fill="currentColor"/>
  <path d="M3.38461 13.3426H4.38461V14.0808H5.14926V15.0808H3.88461C3.60858 15.0808 3.3848 14.8568 3.38461 14.5808V13.3426ZM8.20688 14.0808V15.0808H5.67758V14.0808H8.20688ZM11.2645 14.0808V15.0808H8.73618V14.0808H11.2645ZM14.3221 14.0808V15.0808H11.7938V14.0808H14.3221ZM15.6161 13.3426H16.6161V14.5808C16.6159 14.8567 16.392 15.0807 16.1161 15.0808H14.8514V14.0808H15.6161V13.3426ZM3.38461 10.3914H4.38461V12.867H3.38461V10.3914ZM15.6161 10.3914H16.6161V12.867H15.6161V10.3914ZM3.38461 7.44022H4.38461V9.91581H3.38461V7.44022ZM15.6161 7.44022H16.6161V9.91581H15.6161V7.44022ZM3.38461 5.72635C3.38461 5.45021 3.60847 5.22635 3.88461 5.22635H5.14926V6.22635H4.38461V6.96464H3.38461V5.72635ZM15.6161 6.22635H14.8514V5.22635H16.1161C16.3921 5.22651 16.6161 5.45031 16.6161 5.72635V6.96464H15.6161V6.22635ZM8.20688 5.22635V6.22635H5.67758V5.22635H8.20688ZM11.2645 5.22635V6.22635H8.73618V5.22635H11.2645ZM14.3221 5.22635V6.22635H11.7938V5.22635H14.3221Z" fill="currentColor"/>
  <path fill-rule="evenodd" clip-rule="evenodd" d="M1 8.45279H13.2312V17.3069H1V8.45279Z" fill="currentColor"/>
  <path d="M13.2312 17.3069H1V8.45279H13.2312V17.3069ZM2 16.3073H12.2314V9.45279H2V16.3073Z" fill="currentColor"/>
  <path fill-rule="evenodd" clip-rule="evenodd" d="M1 8.45279H13.2312V17.3069H1V8.45279Z" fill="currentColor"/>
  <path d="M13.2314 7.95279C13.5075 7.95293 13.7314 8.17673 13.7314 8.45279V17.3073C13.7313 17.5832 13.5074 17.8071 13.2314 17.8073H1C0.723972 17.8073 0.500186 17.5833 0.5 17.3073V8.45279C0.5 8.17665 0.723858 7.95279 1 7.95279H13.2314ZM1.5 16.8073H12.7314V8.95279H1.5V16.8073Z" fill="currentColor"/>
</svg>
