<svg width="20" height="20" viewBox="0 0 20 20" fill="none" xmlns="http://www.w3.org/2000/svg">
  <path d="M2.49573 13.9805H3.49573V14.7617H4.3053V15.7617H2.99573C2.71969 15.7617 2.49589 15.5377 2.49573 15.2617V13.9805ZM7.5426 14.7617V15.7617H4.92346V14.7617H7.5426ZM10.7799 14.7617V15.7617H8.16174V14.7617H10.7799ZM14.0182 14.7617V15.7617H11.399V14.7617H14.0182ZM15.4459 13.9805H16.4459V15.2617C16.4458 15.5377 16.222 15.7617 15.9459 15.7617H14.6364V14.7617H15.4459V13.9805ZM2.49573 10.8555H3.49573V13.418H2.49573V10.8555ZM15.4459 12.875H14.4528V11.875H15.4459V10.8555H16.4459V11.875H17.0719V12.875H16.4459V13.418H15.4459V12.875ZM5.54944 11.0938H6.54944V11.875H7.35901V12.875H6.04944C5.77352 12.8749 5.54959 12.6509 5.54944 12.375V11.0938ZM10.5963 11.875V12.875H7.97815V11.875H10.5963ZM13.8346 11.875V12.875H11.2155V11.875H13.8346ZM18.4996 11.0938H19.4996V12.375C19.4995 12.651 19.2757 12.875 18.9996 12.875H17.691V11.875H18.4996V11.0938ZM5.54944 7.96875H6.54944V10.5312H5.54944V7.96875ZM18.4996 7.96875H19.4996V10.5312H18.4996V7.96875ZM2.49573 7.73047H3.49573V10.293H2.49573V7.73047ZM15.4459 7.73047H16.4459V10.293H15.4459V7.73047ZM5.54944 6.38672H4.92346V5.38672H5.54944V4.84375H6.54944V5.38672H7.5426V6.38672H6.54944V7.40625H5.54944V6.38672ZM18.4996 4.84375H19.4996V7.40625H18.4996V4.84375ZM2.49573 5.88672C2.49573 5.61058 2.71959 5.38672 2.99573 5.38672H4.3053V6.38672H3.49573V7.16797H2.49573V5.88672ZM15.4459 6.38672H14.6364V5.38672H15.9459C16.2221 5.38672 16.4459 5.61058 16.4459 5.88672V7.16797H15.4459V6.38672ZM10.7799 5.38672V6.38672H8.16174V5.38672H10.7799ZM14.0182 5.38672V6.38672H11.399V5.38672H14.0182ZM5.54944 3C5.54944 2.72395 5.77342 2.50014 6.04944 2.5H7.35901V3.5H6.54944V4.28125H5.54944V3ZM18.4996 3.5H17.691V2.5H18.9996C19.2758 2.5 19.4996 2.72386 19.4996 3V4.28125H18.4996V3.5ZM10.5963 2.5V3.5H7.97815V2.5H10.5963ZM13.8346 2.5V3.5H11.2155V2.5H13.8346ZM17.0719 2.5V3.5H14.4528V2.5H17.0719Z" fill="currentColor"/>
  <path d="M6.41662 12.9702C9.40814 12.9702 11.8333 12.2582 11.8333 11.3799C11.8333 10.5016 9.40814 9.78961 6.41662 9.78961C3.42511 9.78961 1 10.5016 1 11.3799C1 12.2582 3.42511 12.9702 6.41662 12.9702Z" fill="currentColor"/>
  <path d="M11.8333 11.3799C11.8333 12.2582 9.40814 12.9702 6.41662 12.9702C3.42511 12.9702 1 12.2582 1 11.3799V15.682C1 16.5603 3.42511 17.2723 6.41662 17.2723C9.40814 17.2723 11.8333 16.5603 11.8333 15.682V11.3799Z" fill="currentColor"/>
  <path d="M11.8333 11.3799C11.8333 12.2582 9.40814 12.9702 6.41662 12.9702C3.42511 12.9702 1 12.2582 1 11.3799M11.8333 11.3799C11.8333 10.5016 9.40814 9.78961 6.41662 9.78961C3.42511 9.78961 1 10.5016 1 11.3799M11.8333 11.3799V15.682C11.8333 16.5603 9.40814 17.2723 6.41662 17.2723C3.42511 17.2723 1 16.5603 1 15.682V11.3799" stroke="#FAFAFA" stroke-miterlimit="10" stroke-linejoin="round"/>
</svg>
