<svg width="777" height="754" viewBox="0 0 777 754" fill="none" xmlns="http://www.w3.org/2000/svg">
<g clip-path="url(#clip0_1209_2219)">
<path d="M385.807 0.0664547C378.938 0.412477 372.208 2.11555 366.011 5.07577L95.8876 134.144C88.8962 137.482 82.7531 142.341 77.9146 148.357C73.0761 154.374 69.6665 161.395 67.939 168.898L1.29776 458.817C-0.241084 465.497 -0.413303 472.415 0.791299 479.162C1.9959 485.909 4.55285 492.347 8.31081 498.097C9.22203 499.502 10.202 500.863 11.2473 502.173L198.216 734.641C203.056 740.656 209.199 745.512 216.191 748.85C223.183 752.187 230.842 753.919 238.602 753.918L538.435 753.849C546.192 753.854 553.85 752.128 560.841 748.796C567.833 745.465 573.978 740.615 578.821 734.606L765.721 502.104C770.563 496.086 773.975 489.063 775.703 481.557C777.432 474.05 777.432 466.254 775.705 458.748L708.96 168.829C707.232 161.326 703.823 154.305 698.984 148.288C694.146 142.272 688.003 137.413 681.011 134.074L410.853 5.07577C403.059 1.35205 394.447 -0.370417 385.807 0.0664547Z" fill="#326CE5"/>
<path fill-rule="evenodd" clip-rule="evenodd" d="M173.071 587.899C322.007 503.817 379.155 648.188 508.36 572.178C542.769 552.403 563.7 550.535 578.053 559.693C563.284 541.927 542.163 537.563 508.36 556.992C432.977 603.112 371.708 561.378 301.817 552.178C262.888 547.052 219.472 551.395 173.071 587.899Z" fill="white"/>
<path fill-rule="evenodd" clip-rule="evenodd" d="M142.306 243.272C137.508 316.681 190.127 355.828 231.583 373.431C290.399 398.416 361.464 386.848 378.965 446.805C382.36 413.693 383.656 380.129 383.875 345.677C392.089 398.029 389.663 500.278 354.982 554.63C378.697 560.997 402.071 567.518 426.111 568.843C433.865 513.115 429.149 408.42 418.856 344.915C430.15 375.673 435.677 423.866 436.798 457.33C441.803 440.693 445.476 425.861 452.998 410.069C497.045 299.938 654.282 311.993 576.925 159C568.762 244.887 501.965 200.244 428.81 247.287C408.873 260.107 392.709 275.885 388.267 294.594C357.382 268.207 315.31 268.546 272.165 271.739C227.065 275.074 159.701 285.648 142.306 243.272Z" fill="white"/>
</g>
<defs>
<clipPath id="clip0_1209_2219">
<rect width="777" height="753.918" fill="white"/>
</clipPath>
</defs>
</svg>
