<svg width="777" height="754" viewBox="0 0 777 754" fill="none" xmlns="http://www.w3.org/2000/svg">
<path d="M385.807 0.0664547C378.938 0.412477 372.208 2.11555 366.011 5.07577L95.8876 134.144C88.8962 137.482 82.7531 142.341 77.9146 148.357C73.0761 154.374 69.6664 161.395 67.939 168.898L1.29776 458.817C-0.241084 465.497 -0.413303 472.415 0.791299 479.162C1.9959 485.909 4.55284 492.347 8.31081 498.097C9.22203 499.502 10.202 500.863 11.2473 502.173L198.216 734.641C203.056 740.656 209.199 745.512 216.191 748.85C223.183 752.187 230.842 753.919 238.602 753.918L538.435 753.849C546.192 753.854 553.85 752.128 560.841 748.796C567.833 745.465 573.978 740.615 578.821 734.606L765.721 502.104C770.563 496.086 773.975 489.063 775.703 481.557C777.432 474.05 777.432 466.254 775.705 458.748L708.96 168.829C707.232 161.326 703.823 154.305 698.984 148.288C694.146 142.272 688.003 137.413 681.011 134.074L410.853 5.07577C403.059 1.35205 394.447 -0.370417 385.807 0.0664547Z" fill="#326CE5"/>
<path fill-rule="evenodd" clip-rule="evenodd" d="M458.77 557.581L431.242 381.262C431.242 381.262 540.215 352.917 563.042 348.555C585.868 344.193 605.368 322.381 605.368 289.675C605.368 256.968 605.368 177 605.368 177C605.368 177 577.043 230.412 544.526 230.412C512.009 230.412 481.325 230.412 447.45 230.412C409.757 230.412 388.525 261.792 388.525 303.968C388.525 261.792 367.294 230.412 329.601 230.412C295.726 230.412 265.042 230.412 232.525 230.412C200.008 230.412 171.683 177 171.683 177C171.683 177 171.683 256.968 171.683 289.675C171.683 322.381 191.2 344.193 214.009 348.555C236.836 352.917 345.809 381.262 345.809 381.262L318.281 557.581H150.197C145.666 557.581 142 561.923 142 567.29C142 572.658 145.666 577 150.197 577H626.803C631.334 577 635 572.658 635 567.29C635 561.923 631.334 557.581 626.803 557.581H458.719H458.77Z" fill="white"/>
</svg>
