<svg width="900" height="800" viewBox="0 0 800 900" fill="none" xmlns="http://www.w3.org/2000/svg">
    <g clip-path="url(#clip0_1216_2226)">
        <path
            d="M385.807 73.067a52 52 0 0 0 -19.796 5.009L95.888 207.144a51.6 51.6 0 0 0 -17.973 14.213 51.06 51.06 0 0 0 -9.976 20.541L1.298 531.817a50.8 50.8 0 0 0 -0.507 20.345 51 51 0 0 0 7.52 18.935 51 51 0 0 0 2.936 4.076l186.969 232.468a51.6 51.6 0 0 0 17.975 14.209 52 52 0 0 0 22.411 5.068l299.833 -0.069a52 52 0 0 0 22.406 -5.053 51.6 51.6 0 0 0 17.98 -14.19l186.9 -232.502a51.05 51.05 0 0 0 9.982 -20.547 50.8 50.8 0 0 0 0.002 -22.809L708.96 241.829a51.1 51.1 0 0 0 -9.976 -20.541 51.6 51.6 0 0 0 -17.973 -14.214L410.853 78.076a52 52 0 0 0 -25.046 -5.01"
            fill="#326CE5" />
        <path fill-rule="evenodd" clip-rule="evenodd"
            d="m458.77 630.581 -27.528 -176.319s108.973 -28.345 131.8 -32.707c22.826 -4.362 42.326 -26.174 42.326 -58.88V250s-28.325 53.412 -60.842 53.412H447.45c-37.693 0 -58.925 31.38 -58.925 73.556 0 -42.176 -21.231 -73.556 -58.924 -73.556h-97.076c-32.517 0 -60.842 -53.412 -60.842 -53.412v112.675c0 32.706 19.517 54.518 42.326 58.88 22.827 4.362 131.8 32.707 131.8 32.707l-27.528 176.319H150.197c-4.531 0 -8.197 4.342 -8.197 9.709 0 5.368 3.666 9.71 8.197 9.71h476.606c4.531 0 8.197 -4.342 8.197 -9.71 0 -5.367 -3.666 -9.709 -8.197 -9.709H458.719z"
            fill="white" />
    </g>
    <defs>
        <clipPath id="clip0_1216_2226">
            <path width="777" height="753.918" fill="white" transform="translate(0 73)"
                d="M0 0H777V753.918H0V0z" />
        </clipPath>
    </defs>
</svg>