<svg width="878" height="234" viewBox="0 0 878 234" fill="none" xmlns="http://www.w3.org/2000/svg">
<path d="M872.537 60.0572L876.858 36.6749L748.992 36.6749L744.708 60.0572L872.537 60.0572Z" fill="#456EDE" stroke="#456EDE"/>
<path d="M848.97 184.352L853.292 160.969L725.426 160.976L721.14 184.359L848.97 184.352Z" fill="#456EDE" stroke="#456EDE"/>
<path d="M860.971 122.359L865.292 98.9766L737.426 98.9766L733.141 122.359L860.971 122.359Z" fill="#456EDE" stroke="#456EDE"/>
<path d="M53.9062 42.8125L29.1992 185H2.92969L27.5391 42.8125H53.9062ZM137.598 42.8125L69.8242 112.637L31.543 147.793V119.766L58.2031 90.7617L103.711 42.8125H137.598ZM83.6914 185L51.6602 117.422L72.3633 100.918L113.379 185H83.6914ZM187.402 158.633L201.074 79.3359H226.465L208.105 185H184.375L187.402 158.633ZM193.75 138.027L201.562 137.734C200.781 144.049 199.349 150.202 197.266 156.191C195.247 162.116 192.448 167.422 188.867 172.109C185.352 176.797 180.957 180.508 175.684 183.242C170.41 185.911 164.193 187.181 157.031 187.051C151.237 186.921 146.354 185.814 142.383 183.73C138.477 181.582 135.352 178.685 133.008 175.039C130.729 171.393 129.167 167.227 128.32 162.539C127.539 157.852 127.409 152.871 127.93 147.598L139.355 79.3359H164.648L153.125 147.988C152.865 150.332 152.832 152.578 153.027 154.727C153.288 156.875 153.841 158.828 154.688 160.586C155.534 162.279 156.803 163.646 158.496 164.688C160.189 165.729 162.402 166.315 165.137 166.445C171.061 166.641 175.977 165.469 179.883 162.93C183.854 160.391 186.947 156.94 189.16 152.578C191.374 148.151 192.904 143.301 193.75 138.027ZM256.152 35H281.348L259.18 163.027L252.93 185H230.078L256.152 35ZM330.371 130.508L330.176 132.656C329.395 139.167 327.93 145.677 325.781 152.188C323.633 158.698 320.671 164.622 316.895 169.961C313.118 175.234 308.431 179.466 302.832 182.656C297.298 185.781 290.723 187.246 283.105 187.051C276.4 186.855 270.833 185.13 266.406 181.875C261.979 178.62 258.529 174.421 256.055 169.277C253.646 164.134 251.986 158.568 251.074 152.578C250.163 146.589 249.837 140.762 250.098 135.098L250.781 129.531C251.823 123.542 253.548 117.454 255.957 111.27C258.366 105.085 261.491 99.388 265.332 94.1797C269.238 88.9714 273.861 84.8047 279.199 81.6797C284.603 78.5547 290.788 77.0898 297.754 77.2852C305.046 77.4154 310.97 79.1406 315.527 82.4609C320.085 85.7161 323.535 89.9479 325.879 95.1562C328.288 100.365 329.785 106.061 330.371 112.246C331.022 118.431 331.022 124.518 330.371 130.508ZM304.98 132.559L305.176 130.41C305.566 127.285 305.762 123.867 305.762 120.156C305.762 116.445 305.339 112.93 304.492 109.609C303.646 106.224 302.083 103.457 299.805 101.309C297.591 99.0951 294.336 97.9232 290.039 97.793C286.068 97.5977 282.52 98.2487 279.395 99.7461C276.27 101.178 273.568 103.164 271.289 105.703C269.01 108.242 267.122 111.139 265.625 114.395C264.193 117.65 263.118 121.035 262.402 124.551L260.156 139.98C259.896 144.212 260.254 148.346 261.23 152.383C262.272 156.354 264.16 159.674 266.895 162.344C269.629 164.948 273.47 166.315 278.418 166.445C283.105 166.641 287.044 165.729 290.234 163.711C293.424 161.628 295.996 158.893 297.949 155.508C299.967 152.057 301.53 148.314 302.637 144.277C303.743 140.241 304.525 136.335 304.98 132.559ZM387.793 186.953C380.566 186.823 374.121 185.423 368.457 182.754C362.793 180.085 358.073 176.439 354.297 171.816C350.521 167.194 347.754 161.823 345.996 155.703C344.303 149.583 343.717 143.04 344.238 136.074L344.629 132.07C345.345 124.844 347.07 117.943 349.805 111.367C352.604 104.727 356.315 98.8346 360.938 93.6914C365.625 88.4831 371.126 84.4141 377.441 81.4844C383.822 78.5547 390.885 77.1875 398.633 77.3828C405.99 77.513 412.24 79.043 417.383 81.9727C422.526 84.8372 426.628 88.7109 429.688 93.5938C432.812 98.4115 434.928 103.88 436.035 110C437.142 116.12 437.337 122.5 436.621 129.141L435.156 139.98H354.688L357.52 122.207L412.5 122.305L412.891 120.059C413.477 116.217 413.281 112.604 412.305 109.219C411.393 105.833 409.668 103.099 407.129 101.016C404.655 98.8672 401.302 97.7279 397.07 97.5977C392.383 97.4674 388.411 98.4766 385.156 100.625C381.901 102.708 379.199 105.475 377.051 108.926C374.967 112.376 373.34 116.152 372.168 120.254C370.996 124.29 370.182 128.229 369.727 132.07L369.336 135.977C369.01 139.622 369.108 143.236 369.629 146.816C370.215 150.397 371.289 153.652 372.852 156.582C374.479 159.512 376.725 161.888 379.59 163.711C382.454 165.534 386.003 166.51 390.234 166.641C395.573 166.771 400.456 165.697 404.883 163.418C409.375 161.074 413.444 158.014 417.09 154.238L428.906 167.617C425.911 172.044 422.201 175.723 417.773 178.652C413.346 181.517 408.529 183.633 403.32 185C398.177 186.367 393.001 187.018 387.793 186.953ZM510.84 79.3359L507.617 97.8906H448.73L451.953 79.3359H510.84ZM472.168 53.3594H497.363L480.078 154.727C479.818 157.005 479.818 158.958 480.078 160.586C480.404 162.214 481.152 163.483 482.324 164.395C483.561 165.306 485.417 165.794 487.891 165.859C489.258 165.924 490.625 165.859 491.992 165.664C493.424 165.469 494.824 165.306 496.191 165.176L494.434 184.707C491.96 185.423 489.453 185.944 486.914 186.27C484.375 186.66 481.803 186.855 479.199 186.855C473.145 186.725 468.197 185.358 464.355 182.754C460.579 180.15 457.91 176.602 456.348 172.109C454.785 167.552 454.264 162.376 454.785 156.582L472.168 53.3594ZM569.727 162.539L577.441 113.418C577.832 110.293 577.637 107.461 576.855 104.922C576.139 102.318 574.772 100.234 572.754 98.6719C570.736 97.1094 568.001 96.2956 564.551 96.2305C561.491 96.1654 558.659 96.6862 556.055 97.793C553.516 98.8997 551.367 100.495 549.609 102.578C547.852 104.661 546.647 107.201 545.996 110.195L520.801 110.391C521.191 104.661 522.852 99.7135 525.781 95.5469C528.711 91.3151 532.422 87.8646 536.914 85.1953C541.406 82.4609 546.289 80.4427 551.562 79.1406C556.836 77.8385 562.012 77.2526 567.09 77.3828C574.316 77.513 580.762 79.043 586.426 81.9727C592.09 84.9023 596.419 89.069 599.414 94.4727C602.409 99.8112 603.516 106.322 602.734 114.004L595.215 160.098C594.629 163.874 594.206 167.78 593.945 171.816C593.685 175.788 594.206 179.596 595.508 183.242L595.41 185L570.508 185.098C569.401 181.452 568.848 177.708 568.848 173.867C568.913 170.026 569.206 166.25 569.727 162.539ZM580.371 120.645L577.832 135.977L563.281 135.879C560.286 135.879 557.259 136.204 554.199 136.855C551.204 137.507 548.405 138.548 545.801 139.98C543.197 141.348 541.016 143.203 539.258 145.547C537.5 147.891 536.426 150.755 536.035 154.141C535.71 156.745 536.003 159.023 536.914 160.977C537.826 162.93 539.193 164.492 541.016 165.664C542.904 166.771 545.15 167.357 547.754 167.422C551.335 167.487 554.85 166.803 558.301 165.371C561.751 163.874 564.746 161.79 567.285 159.121C569.889 156.452 571.68 153.359 572.656 149.844L578.613 161.172C577.181 165.013 575.228 168.529 572.754 171.719C570.28 174.909 567.415 177.676 564.16 180.02C560.905 182.298 557.357 184.056 553.516 185.293C549.74 186.595 545.768 187.214 541.602 187.148C535.742 187.018 530.371 185.651 525.488 183.047C520.671 180.443 516.862 176.829 514.062 172.207C511.263 167.585 509.993 162.246 510.254 156.191C510.579 149.29 512.305 143.561 515.43 139.004C518.62 134.382 522.721 130.736 527.734 128.066C532.747 125.397 538.216 123.477 544.141 122.305C550.13 121.133 556.022 120.547 561.816 120.547L580.371 120.645ZM658.301 79.3359L640.039 185H614.746L633.105 79.3359H658.301ZM636.23 52.1875C636.165 48.0859 637.5 44.7656 640.234 42.2266C643.034 39.6224 646.452 38.2878 650.488 38.2227C654.329 38.1576 657.65 39.3294 660.449 41.7383C663.314 44.082 664.746 47.2721 664.746 51.3086C664.811 55.3451 663.444 58.6328 660.645 61.1719C657.845 63.7109 654.46 65.013 650.488 65.0781C646.647 65.1432 643.327 64.0039 640.527 61.6602C637.728 59.3164 636.296 56.1589 636.23 52.1875ZM716.406 35L690.43 185H665.137L691.113 35H716.406Z" fill="#456EDE"/>
</svg>
