<svg width="3303" height="900" viewBox="0 0 3303 900" fill="none" xmlns="http://www.w3.org/2000/svg">
<path d="M385.807 73.0665C378.938 73.4125 372.208 75.1156 366.011 78.0758L95.8876 207.144C88.8962 210.482 82.7531 215.341 77.9146 221.357C73.0761 227.374 69.6665 234.395 67.939 241.898L1.29776 531.817C-0.241084 538.497 -0.413303 545.415 0.791299 552.162C1.9959 558.909 4.55285 565.347 8.31081 571.097C9.22203 572.502 10.202 573.863 11.2473 575.173L198.216 807.641C203.056 813.656 209.199 818.512 216.191 821.85C223.183 825.187 230.842 826.919 238.602 826.918L538.435 826.849C546.192 826.854 553.85 825.128 560.841 821.796C567.833 818.465 573.978 813.615 578.821 807.606L765.721 575.104C770.563 569.086 773.975 562.063 775.703 554.557C777.432 547.05 777.432 539.254 775.705 531.748L708.96 241.829C707.232 234.326 703.823 227.305 698.984 221.288C694.146 215.272 688.003 210.413 681.011 207.074L410.853 78.0758C403.059 74.352 394.447 72.6296 385.807 73.0665Z" fill="#326CE5"/>
<path fill-rule="evenodd" clip-rule="evenodd" d="M173.071 660.899C322.007 576.817 379.155 721.188 508.36 645.178C542.769 625.403 563.7 623.535 578.053 632.693C563.284 614.927 542.163 610.563 508.36 629.992C432.977 676.112 371.708 634.378 301.817 625.178C262.888 620.052 219.472 624.395 173.071 660.899Z" fill="white"/>
<path fill-rule="evenodd" clip-rule="evenodd" d="M142.306 316.272C137.508 389.681 190.127 428.828 231.583 446.431C290.399 471.416 361.464 459.848 378.965 519.805C382.36 486.693 383.656 453.129 383.875 418.677C392.089 471.029 389.663 573.278 354.982 627.63C378.697 633.997 402.071 640.518 426.111 641.843C433.865 586.115 429.149 481.42 418.856 417.915C430.15 448.673 435.677 496.866 436.798 530.33C441.803 513.693 445.476 498.861 452.998 483.069C497.045 372.938 654.282 384.993 576.925 232C568.762 317.887 501.965 273.244 428.81 320.287C408.873 333.107 392.709 348.885 388.267 367.594C357.382 341.207 315.31 341.546 272.165 344.739C227.065 348.074 159.701 358.648 142.306 316.272Z" fill="white"/>
<path d="M1190.4 673C1182 659.4 1172 644.8 1160.4 629.2C1149.2 613.2 1136.8 597.4 1123.2 581.8C1110 565.8 1096.2 550.6 1081.8 536.2C1067.4 521.4 1053 508.4 1038.6 497.2V673H945V257.2H1038.6V414.4C1063 388.8 1087.4 362.2 1111.8 334.6C1136.6 306.6 1159.6 280.8 1180.8 257.2H1291.8C1263.4 290.8 1234.8 323.2 1206 354.4C1177.6 385.6 1147.6 417 1116 448.6C1149.2 476.2 1181.2 509 1212 547C1243.2 585 1273 627 1301.4 673H1190.4ZM1598.05 662.2C1582.85 666.6 1563.25 670.6 1539.25 674.2C1515.25 678.2 1490.05 680.2 1463.65 680.2C1436.85 680.2 1414.45 676.6 1396.45 669.4C1378.85 662.2 1364.85 652.2 1354.45 639.4C1344.05 626.2 1336.65 610.6 1332.25 592.6C1327.85 574.6 1325.65 554.8 1325.65 533.2V357.4H1415.05V522.4C1415.05 551.2 1418.85 572 1426.45 584.8C1434.05 597.6 1448.25 604 1469.05 604C1475.45 604 1482.25 603.8 1489.45 603.4C1496.65 602.6 1503.05 601.8 1508.65 601V357.4H1598.05V662.2ZM1884.17 512.8C1884.17 455.2 1862.97 426.4 1820.57 426.4C1811.37 426.4 1802.17 427.6 1792.97 430C1784.17 432.4 1776.97 435.4 1771.37 439V601.6C1775.77 602.4 1781.37 603.2 1788.17 604C1794.97 604.4 1802.37 604.6 1810.37 604.6C1834.77 604.6 1853.17 596.2 1865.57 579.4C1877.97 562.6 1884.17 540.4 1884.17 512.8ZM1975.37 515.2C1975.37 540.4 1971.57 563.2 1963.97 583.6C1956.77 604 1946.17 621.4 1932.17 635.8C1918.17 650.2 1900.97 661.4 1880.57 669.4C1860.17 677 1836.97 680.8 1810.97 680.8C1800.17 680.8 1788.77 680.2 1776.77 679C1765.17 678.2 1753.57 677 1741.97 675.4C1730.77 673.8 1719.97 672 1709.57 670C1699.17 667.6 1689.97 665.2 1681.97 662.8V221.8L1771.37 207.4V364.6C1781.37 360.2 1791.77 356.8 1802.57 354.4C1813.37 352 1824.97 350.8 1837.37 350.8C1859.77 350.8 1879.57 354.8 1896.77 362.8C1913.97 370.4 1928.37 381.4 1939.97 395.8C1951.57 410.2 1960.37 427.6 1966.37 448C1972.37 468 1975.37 490.4 1975.37 515.2ZM2029.08 517.6C2029.08 489.6 2033.28 465.2 2041.68 444.4C2050.48 423.2 2061.88 405.6 2075.88 391.6C2089.88 377.6 2105.88 367 2123.88 359.8C2142.28 352.6 2161.08 349 2180.28 349C2225.08 349 2260.48 362.8 2286.48 390.4C2312.48 417.6 2325.48 457.8 2325.48 511C2325.48 516.2 2325.28 522 2324.88 528.4C2324.48 534.4 2324.08 539.8 2323.68 544.6H2120.88C2122.88 563 2131.48 577.6 2146.68 588.4C2161.88 599.2 2182.28 604.6 2207.88 604.6C2224.28 604.6 2240.28 603.2 2255.88 600.4C2271.88 597.2 2284.88 593.4 2294.88 589L2306.88 661.6C2302.08 664 2295.68 666.4 2287.68 668.8C2279.68 671.2 2270.68 673.2 2260.68 674.8C2251.08 676.8 2240.68 678.4 2229.48 679.6C2218.28 680.8 2207.08 681.4 2195.88 681.4C2167.48 681.4 2142.68 677.2 2121.48 668.8C2100.68 660.4 2083.28 649 2069.28 634.6C2055.68 619.8 2045.48 602.4 2038.68 582.4C2032.28 562.4 2029.08 540.8 2029.08 517.6ZM2239.08 483.4C2238.68 475.8 2237.28 468.4 2234.88 461.2C2232.88 454 2229.48 447.6 2224.68 442C2220.28 436.4 2214.48 431.8 2207.28 428.2C2200.48 424.6 2191.88 422.8 2181.48 422.8C2171.48 422.8 2162.88 424.6 2155.68 428.2C2148.48 431.4 2142.48 435.8 2137.68 441.4C2132.88 447 2129.08 453.6 2126.28 461.2C2123.88 468.4 2122.08 475.8 2120.88 483.4H2239.08ZM2391.47 278.8L2480.87 264.4V357.4H2588.27V431.8H2480.87V542.8C2480.87 561.6 2484.07 576.6 2490.47 587.8C2497.27 599 2510.67 604.6 2530.67 604.6C2540.27 604.6 2550.07 603.8 2560.07 602.2C2570.47 600.2 2579.87 597.6 2588.27 594.4L2600.87 664C2590.07 668.4 2578.07 672.2 2564.87 675.4C2551.67 678.6 2535.47 680.2 2516.27 680.2C2491.87 680.2 2471.67 677 2455.67 670.6C2439.67 663.8 2426.87 654.6 2417.27 643C2407.67 631 2400.87 616.6 2396.87 599.8C2393.27 583 2391.47 564.4 2391.47 544V278.8ZM2769.95 610.6C2778.75 610.6 2787.15 610.4 2795.15 610C2803.15 609.6 2809.55 609 2814.35 608.2V540.4C2810.75 539.6 2805.35 538.8 2798.15 538C2790.95 537.2 2784.35 536.8 2778.35 536.8C2769.95 536.8 2761.95 537.4 2754.35 538.6C2747.15 539.4 2740.75 541.2 2735.15 544C2729.55 546.8 2725.15 550.6 2721.95 555.4C2718.75 560.2 2717.15 566.2 2717.15 573.4C2717.15 587.4 2721.75 597.2 2730.95 602.8C2740.55 608 2753.55 610.6 2769.95 610.6ZM2762.75 349C2789.15 349 2811.15 352 2828.75 358C2846.35 364 2860.35 372.6 2870.75 383.8C2881.55 395 2889.15 408.6 2893.55 424.6C2897.95 440.6 2900.15 458.4 2900.15 478V664C2887.35 666.8 2869.55 670 2846.75 673.6C2823.95 677.6 2796.35 679.6 2763.95 679.6C2743.55 679.6 2724.95 677.8 2708.15 674.2C2691.75 670.6 2677.55 664.8 2665.55 656.8C2653.55 648.4 2644.35 637.6 2637.95 624.4C2631.55 611.2 2628.35 595 2628.35 575.8C2628.35 557.4 2631.95 541.8 2639.15 529C2646.75 516.2 2656.75 506 2669.15 498.4C2681.55 490.8 2695.75 485.4 2711.75 482.2C2727.75 478.6 2744.35 476.8 2761.55 476.8C2773.15 476.8 2783.35 477.4 2792.15 478.6C2801.35 479.4 2808.75 480.6 2814.35 482.2V473.8C2814.35 458.6 2809.75 446.4 2800.55 437.2C2791.35 428 2775.35 423.4 2752.55 423.4C2737.35 423.4 2722.35 424.6 2707.55 427C2692.75 429 2679.95 432 2669.15 436L2657.75 364C2662.95 362.4 2669.35 360.8 2676.95 359.2C2684.95 357.2 2693.55 355.6 2702.75 354.4C2711.95 352.8 2721.55 351.6 2731.55 350.8C2741.95 349.6 2752.35 349 2762.75 349ZM3070.39 673H2980.99V357.4H3070.39V673ZM3078.79 266.2C3078.79 282.6 3073.39 295.6 3062.59 305.2C3052.19 314.4 3039.79 319 3025.39 319C3010.99 319 2998.39 314.4 2987.59 305.2C2977.19 295.6 2971.99 282.6 2971.99 266.2C2971.99 249.8 2977.19 237 2987.59 227.8C2998.39 218.2 3010.99 213.4 3025.39 213.4C3039.79 213.4 3052.19 218.2 3062.59 227.8C3073.39 237 3078.79 249.8 3078.79 266.2ZM3280.43 679C3254.43 678.6 3233.23 675.8 3216.83 670.6C3200.83 665.4 3188.03 658.2 3178.43 649C3169.23 639.4 3162.83 628 3159.23 614.8C3156.03 601.2 3154.43 586 3154.43 569.2V221.8L3243.83 207.4V551.2C3243.83 559.2 3244.43 566.4 3245.63 572.8C3246.83 579.2 3249.03 584.6 3252.23 589C3255.83 593.4 3260.83 597 3267.23 599.8C3273.63 602.6 3282.23 604.4 3293.03 605.2L3280.43 679Z" fill="#326CE5"/>
</svg>
