<svg width="3323" height="900" viewBox="0 0 3323 900" fill="none" xmlns="http://www.w3.org/2000/svg">
<path d="M1210.4 673C1202 659.4 1192 644.8 1180.4 629.2C1169.2 613.2 1156.8 597.4 1143.2 581.8C1130 565.8 1116.2 550.6 1101.8 536.2C1087.4 521.4 1073 508.4 1058.6 497.2V673H965V257.2H1058.6V414.4C1083 388.8 1107.4 362.2 1131.8 334.6C1156.6 306.6 1179.6 280.8 1200.8 257.2H1311.8C1283.4 290.8 1254.8 323.2 1226 354.4C1197.6 385.6 1167.6 417 1136 448.6C1169.2 476.2 1201.2 509 1232 547C1263.2 585 1293 627 1321.4 673H1210.4ZM1618.05 662.2C1602.85 666.6 1583.25 670.6 1559.25 674.2C1535.25 678.2 1510.05 680.2 1483.65 680.2C1456.85 680.2 1434.45 676.6 1416.45 669.4C1398.85 662.2 1384.85 652.2 1374.45 639.4C1364.05 626.2 1356.65 610.6 1352.25 592.6C1347.85 574.6 1345.65 554.8 1345.65 533.2V357.4H1435.05V522.4C1435.05 551.2 1438.85 572 1446.45 584.8C1454.05 597.6 1468.25 604 1489.05 604C1495.45 604 1502.25 603.8 1509.45 603.4C1516.65 602.6 1523.05 601.8 1528.65 601V357.4H1618.05V662.2ZM1904.17 512.8C1904.17 455.2 1882.97 426.4 1840.57 426.4C1831.37 426.4 1822.17 427.6 1812.97 430C1804.17 432.4 1796.97 435.4 1791.37 439V601.6C1795.77 602.4 1801.37 603.2 1808.17 604C1814.97 604.4 1822.37 604.6 1830.37 604.6C1854.77 604.6 1873.17 596.2 1885.57 579.4C1897.97 562.6 1904.17 540.4 1904.17 512.8ZM1995.37 515.2C1995.37 540.4 1991.57 563.2 1983.97 583.6C1976.77 604 1966.17 621.4 1952.17 635.8C1938.17 650.2 1920.97 661.4 1900.57 669.4C1880.17 677 1856.97 680.8 1830.97 680.8C1820.17 680.8 1808.77 680.2 1796.77 679C1785.17 678.2 1773.57 677 1761.97 675.4C1750.77 673.8 1739.97 672 1729.57 670C1719.17 667.6 1709.97 665.2 1701.97 662.8V221.8L1791.37 207.4V364.6C1801.37 360.2 1811.77 356.8 1822.57 354.4C1833.37 352 1844.97 350.8 1857.37 350.8C1879.77 350.8 1899.57 354.8 1916.77 362.8C1933.97 370.4 1948.37 381.4 1959.97 395.8C1971.57 410.2 1980.37 427.6 1986.37 448C1992.37 468 1995.37 490.4 1995.37 515.2ZM2049.08 517.6C2049.08 489.6 2053.28 465.2 2061.68 444.4C2070.48 423.2 2081.88 405.6 2095.88 391.6C2109.88 377.6 2125.88 367 2143.88 359.8C2162.28 352.6 2181.08 349 2200.28 349C2245.08 349 2280.48 362.8 2306.48 390.4C2332.48 417.6 2345.48 457.8 2345.48 511C2345.48 516.2 2345.28 522 2344.88 528.4C2344.48 534.4 2344.08 539.8 2343.68 544.6H2140.88C2142.88 563 2151.48 577.6 2166.68 588.4C2181.88 599.2 2202.28 604.6 2227.88 604.6C2244.28 604.6 2260.28 603.2 2275.88 600.4C2291.88 597.2 2304.88 593.4 2314.88 589L2326.88 661.6C2322.08 664 2315.68 666.4 2307.68 668.8C2299.68 671.2 2290.68 673.2 2280.68 674.8C2271.08 676.8 2260.68 678.4 2249.48 679.6C2238.28 680.8 2227.08 681.4 2215.88 681.4C2187.48 681.4 2162.68 677.2 2141.48 668.8C2120.68 660.4 2103.28 649 2089.28 634.6C2075.68 619.8 2065.48 602.4 2058.68 582.4C2052.28 562.4 2049.08 540.8 2049.08 517.6ZM2259.08 483.4C2258.68 475.8 2257.28 468.4 2254.88 461.2C2252.88 454 2249.48 447.6 2244.68 442C2240.28 436.4 2234.48 431.8 2227.28 428.2C2220.48 424.6 2211.88 422.8 2201.48 422.8C2191.48 422.8 2182.88 424.6 2175.68 428.2C2168.48 431.4 2162.48 435.8 2157.68 441.4C2152.88 447 2149.08 453.6 2146.28 461.2C2143.88 468.4 2142.08 475.8 2140.88 483.4H2259.08ZM2411.47 278.8L2500.87 264.4V357.4H2608.27V431.8H2500.87V542.8C2500.87 561.6 2504.07 576.6 2510.47 587.8C2517.27 599 2530.67 604.6 2550.67 604.6C2560.27 604.6 2570.07 603.8 2580.07 602.2C2590.47 600.2 2599.87 597.6 2608.27 594.4L2620.87 664C2610.07 668.4 2598.07 672.2 2584.87 675.4C2571.67 678.6 2555.47 680.2 2536.27 680.2C2511.87 680.2 2491.67 677 2475.67 670.6C2459.67 663.8 2446.87 654.6 2437.27 643C2427.67 631 2420.87 616.6 2416.87 599.8C2413.27 583 2411.47 564.4 2411.47 544V278.8ZM2789.95 610.6C2798.75 610.6 2807.15 610.4 2815.15 610C2823.15 609.6 2829.55 609 2834.35 608.2V540.4C2830.75 539.6 2825.35 538.8 2818.15 538C2810.95 537.2 2804.35 536.8 2798.35 536.8C2789.95 536.8 2781.95 537.4 2774.35 538.6C2767.15 539.4 2760.75 541.2 2755.15 544C2749.55 546.8 2745.15 550.6 2741.95 555.4C2738.75 560.2 2737.15 566.2 2737.15 573.4C2737.15 587.4 2741.75 597.2 2750.95 602.8C2760.55 608 2773.55 610.6 2789.95 610.6ZM2782.75 349C2809.15 349 2831.15 352 2848.75 358C2866.35 364 2880.35 372.6 2890.75 383.8C2901.55 395 2909.15 408.6 2913.55 424.6C2917.95 440.6 2920.15 458.4 2920.15 478V664C2907.35 666.8 2889.55 670 2866.75 673.6C2843.95 677.6 2816.35 679.6 2783.95 679.6C2763.55 679.6 2744.95 677.8 2728.15 674.2C2711.75 670.6 2697.55 664.8 2685.55 656.8C2673.55 648.4 2664.35 637.6 2657.95 624.4C2651.55 611.2 2648.35 595 2648.35 575.8C2648.35 557.4 2651.95 541.8 2659.15 529C2666.75 516.2 2676.75 506 2689.15 498.4C2701.55 490.8 2715.75 485.4 2731.75 482.2C2747.75 478.6 2764.35 476.8 2781.55 476.8C2793.15 476.8 2803.35 477.4 2812.15 478.6C2821.35 479.4 2828.75 480.6 2834.35 482.2V473.8C2834.35 458.6 2829.75 446.4 2820.55 437.2C2811.35 428 2795.35 423.4 2772.55 423.4C2757.35 423.4 2742.35 424.6 2727.55 427C2712.75 429 2699.95 432 2689.15 436L2677.75 364C2682.95 362.4 2689.35 360.8 2696.95 359.2C2704.95 357.2 2713.55 355.6 2722.75 354.4C2731.95 352.8 2741.55 351.6 2751.55 350.8C2761.95 349.6 2772.35 349 2782.75 349ZM3090.39 673H3000.99V357.4H3090.39V673ZM3098.79 266.2C3098.79 282.6 3093.39 295.6 3082.59 305.2C3072.19 314.4 3059.79 319 3045.39 319C3030.99 319 3018.39 314.4 3007.59 305.2C2997.19 295.6 2991.99 282.6 2991.99 266.2C2991.99 249.8 2997.19 237 3007.59 227.8C3018.39 218.2 3030.99 213.4 3045.39 213.4C3059.79 213.4 3072.19 218.2 3082.59 227.8C3093.39 237 3098.79 249.8 3098.79 266.2ZM3300.43 679C3274.43 678.6 3253.23 675.8 3236.83 670.6C3220.83 665.4 3208.03 658.2 3198.43 649C3189.23 639.4 3182.83 628 3179.23 614.8C3176.03 601.2 3174.43 586 3174.43 569.2V221.8L3263.83 207.4V551.2C3263.83 559.2 3264.43 566.4 3265.63 572.8C3266.83 579.2 3269.03 584.6 3272.23 589C3275.83 593.4 3280.83 597 3287.23 599.8C3293.63 602.6 3302.23 604.4 3313.03 605.2L3300.43 679Z" fill="#326CE5"/>
<g clip-path="url(#clip0_1216_2226)">
<path d="M385.807 73.0665C378.938 73.4125 372.208 75.1156 366.011 78.0758L95.8876 207.144C88.8962 210.482 82.7531 215.341 77.9146 221.357C73.0761 227.374 69.6664 234.395 67.939 241.898L1.29776 531.817C-0.241084 538.497 -0.413303 545.415 0.791299 552.162C1.9959 558.909 4.55284 565.347 8.31081 571.097C9.22203 572.502 10.202 573.863 11.2473 575.173L198.216 807.641C203.056 813.656 209.199 818.512 216.191 821.85C223.183 825.187 230.842 826.919 238.602 826.918L538.435 826.849C546.192 826.854 553.85 825.128 560.841 821.796C567.833 818.465 573.978 813.615 578.821 807.606L765.721 575.104C770.563 569.086 773.975 562.063 775.703 554.557C777.432 547.05 777.432 539.254 775.705 531.748L708.96 241.829C707.232 234.326 703.823 227.305 698.984 221.288C694.146 215.272 688.003 210.413 681.011 207.074L410.853 78.0758C403.059 74.352 394.447 72.6296 385.807 73.0665Z" fill="#326CE5"/>
<path fill-rule="evenodd" clip-rule="evenodd" d="M458.77 630.581L431.242 454.262C431.242 454.262 540.215 425.917 563.042 421.555C585.868 417.193 605.368 395.381 605.368 362.675C605.368 329.968 605.368 250 605.368 250C605.368 250 577.043 303.412 544.526 303.412C512.009 303.412 481.325 303.412 447.45 303.412C409.757 303.412 388.525 334.792 388.525 376.968C388.525 334.792 367.294 303.412 329.601 303.412C295.726 303.412 265.042 303.412 232.525 303.412C200.008 303.412 171.683 250 171.683 250C171.683 250 171.683 329.968 171.683 362.675C171.683 395.381 191.2 417.193 214.009 421.555C236.836 425.917 345.809 454.262 345.809 454.262L318.281 630.581H150.197C145.666 630.581 142 634.923 142 640.29C142 645.658 145.666 650 150.197 650H626.803C631.334 650 635 645.658 635 640.29C635 634.923 631.334 630.581 626.803 630.581H458.719H458.77Z" fill="white"/>
</g>
<defs>
<clipPath id="clip0_1216_2226">
<rect width="777" height="753.918" fill="white" transform="translate(0 73)"/>
</clipPath>
</defs>
</svg>
