<svg width="3323" height="754" viewBox="0 0 3323 754" fill="none" xmlns="http://www.w3.org/2000/svg">
<path d="M1210.4 594C1202 580.4 1192 565.8 1180.4 550.2C1169.2 534.2 1156.8 518.4 1143.2 502.8C1130 486.8 1116.2 471.6 1101.8 457.2C1087.4 442.4 1073 429.4 1058.6 418.2V594H965V178.2H1058.6V335.4C1083 309.8 1107.4 283.2 1131.8 255.6C1156.6 227.6 1179.6 201.8 1200.8 178.2H1311.8C1283.4 211.8 1254.8 244.2 1226 275.4C1197.6 306.6 1167.6 338 1136 369.6C1169.2 397.2 1201.2 430 1232 468C1263.2 506 1293 548 1321.4 594H1210.4ZM1618.05 583.2C1602.85 587.6 1583.25 591.6 1559.25 595.2C1535.25 599.2 1510.05 601.2 1483.65 601.2C1456.85 601.2 1434.45 597.6 1416.45 590.4C1398.85 583.2 1384.85 573.2 1374.45 560.4C1364.05 547.2 1356.65 531.6 1352.25 513.6C1347.85 495.6 1345.65 475.8 1345.65 454.2V278.4H1435.05V443.4C1435.05 472.2 1438.85 493 1446.45 505.8C1454.05 518.6 1468.25 525 1489.05 525C1495.45 525 1502.25 524.8 1509.45 524.4C1516.65 523.6 1523.05 522.8 1528.65 522V278.4H1618.05V583.2ZM1904.17 433.8C1904.17 376.2 1882.97 347.4 1840.57 347.4C1831.37 347.4 1822.17 348.6 1812.97 351C1804.17 353.4 1796.97 356.4 1791.37 360V522.6C1795.77 523.4 1801.37 524.2 1808.17 525C1814.97 525.4 1822.37 525.6 1830.37 525.6C1854.77 525.6 1873.17 517.2 1885.57 500.4C1897.97 483.6 1904.17 461.4 1904.17 433.8ZM1995.37 436.2C1995.37 461.4 1991.57 484.2 1983.97 504.6C1976.77 525 1966.17 542.4 1952.17 556.8C1938.17 571.2 1920.97 582.4 1900.57 590.4C1880.17 598 1856.97 601.8 1830.97 601.8C1820.17 601.8 1808.77 601.2 1796.77 600C1785.17 599.2 1773.57 598 1761.97 596.4C1750.77 594.8 1739.97 593 1729.57 591C1719.17 588.6 1709.97 586.2 1701.97 583.8V142.8L1791.37 128.4V285.6C1801.37 281.2 1811.77 277.8 1822.57 275.4C1833.37 273 1844.97 271.8 1857.37 271.8C1879.77 271.8 1899.57 275.8 1916.77 283.8C1933.97 291.4 1948.37 302.4 1959.97 316.8C1971.57 331.2 1980.37 348.6 1986.37 369C1992.37 389 1995.37 411.4 1995.37 436.2ZM2049.08 438.6C2049.08 410.6 2053.28 386.2 2061.68 365.4C2070.48 344.2 2081.88 326.6 2095.88 312.6C2109.88 298.6 2125.88 288 2143.88 280.8C2162.28 273.6 2181.08 270 2200.28 270C2245.08 270 2280.48 283.8 2306.48 311.4C2332.48 338.6 2345.48 378.8 2345.48 432C2345.48 437.2 2345.28 443 2344.88 449.4C2344.48 455.4 2344.08 460.8 2343.68 465.6H2140.88C2142.88 484 2151.48 498.6 2166.68 509.4C2181.88 520.2 2202.28 525.6 2227.88 525.6C2244.28 525.6 2260.28 524.2 2275.88 521.4C2291.88 518.2 2304.88 514.4 2314.88 510L2326.88 582.6C2322.08 585 2315.68 587.4 2307.68 589.8C2299.68 592.2 2290.68 594.2 2280.68 595.8C2271.08 597.8 2260.68 599.4 2249.48 600.6C2238.28 601.8 2227.08 602.4 2215.88 602.4C2187.48 602.4 2162.68 598.2 2141.48 589.8C2120.68 581.4 2103.28 570 2089.28 555.6C2075.68 540.8 2065.48 523.4 2058.68 503.4C2052.28 483.4 2049.08 461.8 2049.08 438.6ZM2259.08 404.4C2258.68 396.8 2257.28 389.4 2254.88 382.2C2252.88 375 2249.48 368.6 2244.68 363C2240.28 357.4 2234.48 352.8 2227.28 349.2C2220.48 345.6 2211.88 343.8 2201.48 343.8C2191.48 343.8 2182.88 345.6 2175.68 349.2C2168.48 352.4 2162.48 356.8 2157.68 362.4C2152.88 368 2149.08 374.6 2146.28 382.2C2143.88 389.4 2142.08 396.8 2140.88 404.4H2259.08ZM2411.47 199.8L2500.87 185.4V278.4H2608.27V352.8H2500.87V463.8C2500.87 482.6 2504.07 497.6 2510.47 508.8C2517.27 520 2530.67 525.6 2550.67 525.6C2560.27 525.6 2570.07 524.8 2580.07 523.2C2590.47 521.2 2599.87 518.6 2608.27 515.4L2620.87 585C2610.07 589.4 2598.07 593.2 2584.87 596.4C2571.67 599.6 2555.47 601.2 2536.27 601.2C2511.87 601.2 2491.67 598 2475.67 591.6C2459.67 584.8 2446.87 575.6 2437.27 564C2427.67 552 2420.87 537.6 2416.87 520.8C2413.27 504 2411.47 485.4 2411.47 465V199.8ZM2789.95 531.6C2798.75 531.6 2807.15 531.4 2815.15 531C2823.15 530.6 2829.55 530 2834.35 529.2V461.4C2830.75 460.6 2825.35 459.8 2818.15 459C2810.95 458.2 2804.35 457.8 2798.35 457.8C2789.95 457.8 2781.95 458.4 2774.35 459.6C2767.15 460.4 2760.75 462.2 2755.15 465C2749.55 467.8 2745.15 471.6 2741.95 476.4C2738.75 481.2 2737.15 487.2 2737.15 494.4C2737.15 508.4 2741.75 518.2 2750.95 523.8C2760.55 529 2773.55 531.6 2789.95 531.6ZM2782.75 270C2809.15 270 2831.15 273 2848.75 279C2866.35 285 2880.35 293.6 2890.75 304.8C2901.55 316 2909.15 329.6 2913.55 345.6C2917.95 361.6 2920.15 379.4 2920.15 399V585C2907.35 587.8 2889.55 591 2866.75 594.6C2843.95 598.6 2816.35 600.6 2783.95 600.6C2763.55 600.6 2744.95 598.8 2728.15 595.2C2711.75 591.6 2697.55 585.8 2685.55 577.8C2673.55 569.4 2664.35 558.6 2657.95 545.4C2651.55 532.2 2648.35 516 2648.35 496.8C2648.35 478.4 2651.95 462.8 2659.15 450C2666.75 437.2 2676.75 427 2689.15 419.4C2701.55 411.8 2715.75 406.4 2731.75 403.2C2747.75 399.6 2764.35 397.8 2781.55 397.8C2793.15 397.8 2803.35 398.4 2812.15 399.6C2821.35 400.4 2828.75 401.6 2834.35 403.2V394.8C2834.35 379.6 2829.75 367.4 2820.55 358.2C2811.35 349 2795.35 344.4 2772.55 344.4C2757.35 344.4 2742.35 345.6 2727.55 348C2712.75 350 2699.95 353 2689.15 357L2677.75 285C2682.95 283.4 2689.35 281.8 2696.95 280.2C2704.95 278.2 2713.55 276.6 2722.75 275.4C2731.95 273.8 2741.55 272.6 2751.55 271.8C2761.95 270.6 2772.35 270 2782.75 270ZM3090.39 594H3000.99V278.4H3090.39V594ZM3098.79 187.2C3098.79 203.6 3093.39 216.6 3082.59 226.2C3072.19 235.4 3059.79 240 3045.39 240C3030.99 240 3018.39 235.4 3007.59 226.2C2997.19 216.6 2991.99 203.6 2991.99 187.2C2991.99 170.8 2997.19 158 3007.59 148.8C3018.39 139.2 3030.99 134.4 3045.39 134.4C3059.79 134.4 3072.19 139.2 3082.59 148.8C3093.39 158 3098.79 170.8 3098.79 187.2ZM3300.43 600C3274.43 599.6 3253.23 596.8 3236.83 591.6C3220.83 586.4 3208.03 579.2 3198.43 570C3189.23 560.4 3182.83 549 3179.23 535.8C3176.03 522.2 3174.43 507 3174.43 490.2V142.8L3263.83 128.4V472.2C3263.83 480.2 3264.43 487.4 3265.63 493.8C3266.83 500.2 3269.03 505.6 3272.23 510C3275.83 514.4 3280.83 518 3287.23 520.8C3293.63 523.6 3302.23 525.4 3313.03 526.2L3300.43 600Z" fill="#326CE5"/>
<path d="M385.807 0.0664547C378.938 0.412477 372.208 2.11555 366.011 5.07577L95.8876 134.144C88.8962 137.482 82.7531 142.341 77.9146 148.357C73.0761 154.374 69.6664 161.395 67.939 168.898L1.29776 458.817C-0.241084 465.497 -0.413303 472.415 0.791299 479.162C1.9959 485.909 4.55284 492.347 8.31081 498.097C9.22203 499.502 10.202 500.863 11.2473 502.173L198.216 734.641C203.056 740.656 209.199 745.512 216.191 748.85C223.183 752.187 230.842 753.919 238.602 753.918L538.435 753.849C546.192 753.854 553.85 752.128 560.841 748.796C567.833 745.465 573.978 740.615 578.821 734.606L765.721 502.104C770.563 496.086 773.975 489.063 775.703 481.557C777.432 474.05 777.432 466.254 775.705 458.748L708.96 168.829C707.232 161.326 703.823 154.305 698.984 148.288C694.146 142.272 688.003 137.413 681.011 134.074L410.853 5.07577C403.059 1.35205 394.447 -0.370417 385.807 0.0664547Z" fill="#326CE5"/>
<path fill-rule="evenodd" clip-rule="evenodd" d="M458.77 557.581L431.242 381.262C431.242 381.262 540.215 352.917 563.042 348.555C585.868 344.193 605.368 322.381 605.368 289.675C605.368 256.968 605.368 177 605.368 177C605.368 177 577.043 230.412 544.526 230.412C512.009 230.412 481.325 230.412 447.45 230.412C409.757 230.412 388.525 261.792 388.525 303.968C388.525 261.792 367.294 230.412 329.601 230.412C295.726 230.412 265.042 230.412 232.525 230.412C200.008 230.412 171.683 177 171.683 177C171.683 177 171.683 256.968 171.683 289.675C171.683 322.381 191.2 344.193 214.009 348.555C236.836 352.917 345.809 381.262 345.809 381.262L318.281 557.581H150.197C145.666 557.581 142 561.923 142 567.29C142 572.658 145.666 577 150.197 577H626.803C631.334 577 635 572.658 635 567.29C635 561.923 631.334 557.581 626.803 557.581H458.719H458.77Z" fill="white"/>
</svg>
