<svg width="1021" height="335" viewBox="0 0 1021 335" fill="none" xmlns="http://www.w3.org/2000/svg">
<rect width="1021" height="335" rx="5" fill="#F3F4F6"/>
<path d="M944.537 111.057L948.858 87.6749L820.992 87.6749L816.708 111.057L944.537 111.057Z" fill="#456EDE" stroke="#456EDE"/>
<path d="M920.97 235.352L925.292 211.969L797.426 211.976L793.14 235.359L920.97 235.352Z" fill="#456EDE" stroke="#456EDE"/>
<path d="M932.971 173.359L937.292 149.977L809.426 149.977L805.141 173.359L932.971 173.359Z" fill="#456EDE" stroke="#456EDE"/>
<path d="M125.906 93.8125L101.199 236H74.9297L99.5391 93.8125H125.906ZM209.598 93.8125L141.824 163.637L103.543 198.793V170.766L130.203 141.762L175.711 93.8125H209.598ZM155.691 236L123.66 168.422L144.363 151.918L185.379 236H155.691ZM259.402 209.633L273.074 130.336H298.465L280.105 236H256.375L259.402 209.633ZM265.75 189.027L273.562 188.734C272.781 195.049 271.349 201.202 269.266 207.191C267.247 213.116 264.448 218.422 260.867 223.109C257.352 227.797 252.957 231.508 247.684 234.242C242.41 236.911 236.193 238.181 229.031 238.051C223.237 237.921 218.354 236.814 214.383 234.73C210.477 232.582 207.352 229.685 205.008 226.039C202.729 222.393 201.167 218.227 200.32 213.539C199.539 208.852 199.409 203.871 199.93 198.598L211.355 130.336H236.648L225.125 198.988C224.865 201.332 224.832 203.578 225.027 205.727C225.288 207.875 225.841 209.828 226.688 211.586C227.534 213.279 228.803 214.646 230.496 215.688C232.189 216.729 234.402 217.315 237.137 217.445C243.061 217.641 247.977 216.469 251.883 213.93C255.854 211.391 258.947 207.94 261.16 203.578C263.374 199.151 264.904 194.301 265.75 189.027ZM328.152 86H353.348L331.18 214.027L324.93 236H302.078L328.152 86ZM402.371 181.508L402.176 183.656C401.395 190.167 399.93 196.677 397.781 203.188C395.633 209.698 392.671 215.622 388.895 220.961C385.118 226.234 380.431 230.466 374.832 233.656C369.298 236.781 362.723 238.246 355.105 238.051C348.4 237.855 342.833 236.13 338.406 232.875C333.979 229.62 330.529 225.421 328.055 220.277C325.646 215.134 323.986 209.568 323.074 203.578C322.163 197.589 321.837 191.762 322.098 186.098L322.781 180.531C323.823 174.542 325.548 168.454 327.957 162.27C330.366 156.085 333.491 150.388 337.332 145.18C341.238 139.971 345.861 135.805 351.199 132.68C356.603 129.555 362.788 128.09 369.754 128.285C377.046 128.415 382.97 130.141 387.527 133.461C392.085 136.716 395.535 140.948 397.879 146.156C400.288 151.365 401.785 157.061 402.371 163.246C403.022 169.431 403.022 175.518 402.371 181.508ZM376.98 183.559L377.176 181.41C377.566 178.285 377.762 174.867 377.762 171.156C377.762 167.445 377.339 163.93 376.492 160.609C375.646 157.224 374.083 154.457 371.805 152.309C369.591 150.095 366.336 148.923 362.039 148.793C358.068 148.598 354.52 149.249 351.395 150.746C348.27 152.178 345.568 154.164 343.289 156.703C341.01 159.242 339.122 162.139 337.625 165.395C336.193 168.65 335.118 172.035 334.402 175.551L332.156 190.98C331.896 195.212 332.254 199.346 333.23 203.383C334.272 207.354 336.16 210.674 338.895 213.344C341.629 215.948 345.47 217.315 350.418 217.445C355.105 217.641 359.044 216.729 362.234 214.711C365.424 212.628 367.996 209.893 369.949 206.508C371.967 203.057 373.53 199.314 374.637 195.277C375.743 191.241 376.525 187.335 376.98 183.559ZM459.793 237.953C452.566 237.823 446.121 236.423 440.457 233.754C434.793 231.085 430.073 227.439 426.297 222.816C422.521 218.194 419.754 212.823 417.996 206.703C416.303 200.583 415.717 194.04 416.238 187.074L416.629 183.07C417.345 175.844 419.07 168.943 421.805 162.367C424.604 155.727 428.315 149.835 432.938 144.691C437.625 139.483 443.126 135.414 449.441 132.484C455.822 129.555 462.885 128.188 470.633 128.383C477.99 128.513 484.24 130.043 489.383 132.973C494.526 135.837 498.628 139.711 501.688 144.594C504.812 149.411 506.928 154.88 508.035 161C509.142 167.12 509.337 173.5 508.621 180.141L507.156 190.98H426.688L429.52 173.207L484.5 173.305L484.891 171.059C485.477 167.217 485.281 163.604 484.305 160.219C483.393 156.833 481.668 154.099 479.129 152.016C476.655 149.867 473.302 148.728 469.07 148.598C464.383 148.467 460.411 149.477 457.156 151.625C453.901 153.708 451.199 156.475 449.051 159.926C446.967 163.376 445.34 167.152 444.168 171.254C442.996 175.29 442.182 179.229 441.727 183.07L441.336 186.977C441.01 190.622 441.108 194.236 441.629 197.816C442.215 201.397 443.289 204.652 444.852 207.582C446.479 210.512 448.725 212.888 451.59 214.711C454.454 216.534 458.003 217.51 462.234 217.641C467.573 217.771 472.456 216.697 476.883 214.418C481.375 212.074 485.444 209.014 489.09 205.238L500.906 218.617C497.911 223.044 494.201 226.723 489.773 229.652C485.346 232.517 480.529 234.633 475.32 236C470.177 237.367 465.001 238.018 459.793 237.953ZM582.84 130.336L579.617 148.891H520.73L523.953 130.336H582.84ZM544.168 104.359H569.363L552.078 205.727C551.818 208.005 551.818 209.958 552.078 211.586C552.404 213.214 553.152 214.483 554.324 215.395C555.561 216.306 557.417 216.794 559.891 216.859C561.258 216.924 562.625 216.859 563.992 216.664C565.424 216.469 566.824 216.306 568.191 216.176L566.434 235.707C563.96 236.423 561.453 236.944 558.914 237.27C556.375 237.66 553.803 237.855 551.199 237.855C545.145 237.725 540.197 236.358 536.355 233.754C532.579 231.15 529.91 227.602 528.348 223.109C526.785 218.552 526.264 213.376 526.785 207.582L544.168 104.359ZM641.727 213.539L649.441 164.418C649.832 161.293 649.637 158.461 648.855 155.922C648.139 153.318 646.772 151.234 644.754 149.672C642.736 148.109 640.001 147.296 636.551 147.23C633.491 147.165 630.659 147.686 628.055 148.793C625.516 149.9 623.367 151.495 621.609 153.578C619.852 155.661 618.647 158.201 617.996 161.195L592.801 161.391C593.191 155.661 594.852 150.714 597.781 146.547C600.711 142.315 604.422 138.865 608.914 136.195C613.406 133.461 618.289 131.443 623.562 130.141C628.836 128.839 634.012 128.253 639.09 128.383C646.316 128.513 652.762 130.043 658.426 132.973C664.09 135.902 668.419 140.069 671.414 145.473C674.409 150.811 675.516 157.322 674.734 165.004L667.215 211.098C666.629 214.874 666.206 218.78 665.945 222.816C665.685 226.788 666.206 230.596 667.508 234.242L667.41 236L642.508 236.098C641.401 232.452 640.848 228.708 640.848 224.867C640.913 221.026 641.206 217.25 641.727 213.539ZM652.371 171.645L649.832 186.977L635.281 186.879C632.286 186.879 629.259 187.204 626.199 187.855C623.204 188.507 620.405 189.548 617.801 190.98C615.197 192.348 613.016 194.203 611.258 196.547C609.5 198.891 608.426 201.755 608.035 205.141C607.71 207.745 608.003 210.023 608.914 211.977C609.826 213.93 611.193 215.492 613.016 216.664C614.904 217.771 617.15 218.357 619.754 218.422C623.335 218.487 626.85 217.803 630.301 216.371C633.751 214.874 636.746 212.79 639.285 210.121C641.889 207.452 643.68 204.359 644.656 200.844L650.613 212.172C649.181 216.013 647.228 219.529 644.754 222.719C642.28 225.909 639.415 228.676 636.16 231.02C632.905 233.298 629.357 235.056 625.516 236.293C621.74 237.595 617.768 238.214 613.602 238.148C607.742 238.018 602.371 236.651 597.488 234.047C592.671 231.443 588.862 227.829 586.062 223.207C583.263 218.585 581.993 213.246 582.254 207.191C582.579 200.29 584.305 194.561 587.43 190.004C590.62 185.382 594.721 181.736 599.734 179.066C604.747 176.397 610.216 174.477 616.141 173.305C622.13 172.133 628.022 171.547 633.816 171.547L652.371 171.645ZM730.301 130.336L712.039 236H686.746L705.105 130.336H730.301ZM708.23 103.188C708.165 99.0859 709.5 95.7656 712.234 93.2266C715.034 90.6224 718.452 89.2878 722.488 89.2227C726.329 89.1576 729.65 90.3294 732.449 92.7383C735.314 95.082 736.746 98.2721 736.746 102.309C736.811 106.345 735.444 109.633 732.645 112.172C729.845 114.711 726.46 116.013 722.488 116.078C718.647 116.143 715.327 115.004 712.527 112.66C709.728 110.316 708.296 107.159 708.23 103.188ZM788.406 86L762.43 236H737.137L763.113 86H788.406Z" fill="#456EDE"/>
</svg>
