<svg width="2902" height="754" viewBox="0 0 2902 754" fill="none" xmlns="http://www.w3.org/2000/svg">
<g clip-path="url(#clip0_1209_2226)">
<path d="M385.807 0.0664547C378.938 0.412477 372.208 2.11555 366.011 5.07577L95.8876 134.144C88.8962 137.482 82.7531 142.341 77.9146 148.357C73.0761 154.374 69.6665 161.395 67.939 168.898L1.29776 458.817C-0.241084 465.497 -0.413303 472.415 0.791299 479.162C1.9959 485.909 4.55285 492.347 8.31081 498.097C9.22203 499.502 10.202 500.863 11.2473 502.173L198.216 734.641C203.056 740.656 209.199 745.512 216.191 748.85C223.183 752.187 230.842 753.919 238.602 753.918L538.435 753.849C546.192 753.854 553.85 752.128 560.841 748.796C567.833 745.465 573.978 740.615 578.821 734.606L765.721 502.104C770.563 496.086 773.975 489.063 775.703 481.557C777.432 474.05 777.432 466.254 775.705 458.748L708.96 168.829C707.232 161.326 703.823 154.305 698.984 148.288C694.146 142.272 688.003 137.413 681.011 134.074L410.853 5.07577C403.059 1.35205 394.447 -0.370417 385.807 0.0664547Z" fill="#326CE5"/>
<path fill-rule="evenodd" clip-rule="evenodd" d="M173.071 587.899C322.007 503.817 379.155 648.188 508.36 572.178C542.769 552.403 563.699 550.535 578.053 559.693C563.284 541.927 542.162 537.563 508.36 556.992C432.976 603.112 371.708 561.378 301.816 552.178C262.888 547.052 219.472 551.395 173.071 587.899Z" fill="white"/>
<path fill-rule="evenodd" clip-rule="evenodd" d="M142.306 243.272C137.508 316.681 190.127 355.828 231.583 373.431C290.399 398.416 361.464 386.848 378.965 446.805C382.36 413.693 383.656 380.129 383.875 345.677C392.089 398.029 389.663 500.278 354.982 554.63C378.697 560.997 402.071 567.518 426.111 568.843C433.865 513.115 429.149 408.42 418.856 344.915C430.15 375.673 435.677 423.866 436.798 457.33C441.803 440.693 445.476 425.861 452.998 410.069C497.045 299.938 654.282 311.993 576.925 159C568.762 244.887 501.965 200.244 428.81 247.287C408.873 260.107 392.709 275.885 388.267 294.594C357.382 268.207 315.31 268.546 272.165 271.739C227.065 275.074 159.701 285.648 142.306 243.272Z" fill="white"/>
</g>
<path d="M1141.5 595C1134.5 583.667 1126.17 571.5 1116.5 558.5C1107.17 545.167 1096.83 532 1085.5 519C1074.5 505.667 1063 493 1051 481C1039 468.667 1027 457.833 1015 448.5V595H937V248.5H1015V379.5C1035.33 358.167 1055.67 336 1076 313C1096.67 289.667 1115.83 268.167 1133.5 248.5H1226C1202.33 276.5 1178.5 303.5 1154.5 329.5C1130.83 355.5 1105.83 381.667 1079.5 408C1107.17 431 1133.83 458.333 1159.5 490C1185.5 521.667 1210.33 556.667 1234 595H1141.5ZM1481.21 586C1468.54 589.667 1452.21 593 1432.21 596C1412.21 599.333 1391.21 601 1369.21 601C1346.87 601 1328.21 598 1313.21 592C1298.54 586 1286.87 577.667 1278.21 567C1269.54 556 1263.37 543 1259.71 528C1256.04 513 1254.21 496.5 1254.21 478.5V332H1328.71V469.5C1328.71 493.5 1331.87 510.833 1338.21 521.5C1344.54 532.167 1356.37 537.5 1373.71 537.5C1379.04 537.5 1384.71 537.333 1390.71 537C1396.71 536.333 1402.04 535.667 1406.71 535V332H1481.21V586ZM1719.64 461.5C1719.64 413.5 1701.97 389.5 1666.64 389.5C1658.97 389.5 1651.31 390.5 1643.64 392.5C1636.31 394.5 1630.31 397 1625.64 400V535.5C1629.31 536.167 1633.97 536.833 1639.64 537.5C1645.31 537.833 1651.47 538 1658.14 538C1678.47 538 1693.81 531 1704.14 517C1714.47 503 1719.64 484.5 1719.64 461.5ZM1795.64 463.5C1795.64 484.5 1792.47 503.5 1786.14 520.5C1780.14 537.5 1771.31 552 1759.64 564C1747.97 576 1733.64 585.333 1716.64 592C1699.64 598.333 1680.31 601.5 1658.64 601.5C1649.64 601.5 1640.14 601 1630.14 600C1620.47 599.333 1610.81 598.333 1601.14 597C1591.81 595.667 1582.81 594.167 1574.14 592.5C1565.47 590.5 1557.81 588.5 1551.14 586.5V219L1625.64 207V338C1633.97 334.333 1642.64 331.5 1651.64 329.5C1660.64 327.5 1670.31 326.5 1680.64 326.5C1699.31 326.5 1715.81 329.833 1730.14 336.5C1744.47 342.833 1756.47 352 1766.14 364C1775.81 376 1783.14 390.5 1788.14 407.5C1793.14 424.167 1795.64 442.833 1795.64 463.5ZM1840.4 465.5C1840.4 442.167 1843.9 421.833 1850.9 404.5C1858.23 386.833 1867.73 372.167 1879.4 360.5C1891.07 348.833 1904.4 340 1919.4 334C1934.73 328 1950.4 325 1966.4 325C2003.73 325 2033.23 336.5 2054.9 359.5C2076.57 382.167 2087.4 415.667 2087.4 460C2087.4 464.333 2087.23 469.167 2086.9 474.5C2086.57 479.5 2086.23 484 2085.9 488H1916.9C1918.57 503.333 1925.73 515.5 1938.4 524.5C1951.07 533.5 1968.07 538 1989.4 538C2003.07 538 2016.4 536.833 2029.4 534.5C2042.73 531.833 2053.57 528.667 2061.9 525L2071.9 585.5C2067.9 587.5 2062.57 589.5 2055.9 591.5C2049.23 593.5 2041.73 595.167 2033.4 596.5C2025.4 598.167 2016.73 599.5 2007.4 600.5C1998.07 601.5 1988.73 602 1979.4 602C1955.73 602 1935.07 598.5 1917.4 591.5C1900.07 584.5 1885.57 575 1873.9 563C1862.57 550.667 1854.07 536.167 1848.4 519.5C1843.07 502.833 1840.4 484.833 1840.4 465.5ZM2015.4 437C2015.07 430.667 2013.9 424.5 2011.9 418.5C2010.23 412.5 2007.4 407.167 2003.4 402.5C1999.73 397.833 1994.9 394 1988.9 391C1983.23 388 1976.07 386.5 1967.4 386.5C1959.07 386.5 1951.9 388 1945.9 391C1939.9 393.667 1934.9 397.333 1930.9 402C1926.9 406.667 1923.73 412.167 1921.4 418.5C1919.4 424.5 1917.9 430.667 1916.9 437H2015.4ZM2142.39 266.5L2216.89 254.5V332H2306.39V394H2216.89V486.5C2216.89 502.167 2219.56 514.667 2224.89 524C2230.56 533.333 2241.72 538 2258.39 538C2266.39 538 2274.56 537.333 2282.89 536C2291.56 534.333 2299.39 532.167 2306.39 529.5L2316.89 587.5C2307.89 591.167 2297.89 594.333 2286.89 597C2275.89 599.667 2262.39 601 2246.39 601C2226.06 601 2209.22 598.333 2195.89 593C2182.56 587.333 2171.89 579.667 2163.89 570C2155.89 560 2150.22 548 2146.89 534C2143.89 520 2142.39 504.5 2142.39 487.5V266.5ZM2457.79 543C2465.13 543 2472.13 542.833 2478.79 542.5C2485.46 542.167 2490.79 541.667 2494.79 541V484.5C2491.79 483.833 2487.29 483.167 2481.29 482.5C2475.29 481.833 2469.79 481.5 2464.79 481.5C2457.79 481.5 2451.13 482 2444.79 483C2438.79 483.667 2433.46 485.167 2428.79 487.5C2424.13 489.833 2420.46 493 2417.79 497C2415.13 501 2413.79 506 2413.79 512C2413.79 523.667 2417.63 531.833 2425.29 536.5C2433.29 540.833 2444.13 543 2457.79 543ZM2451.79 325C2473.79 325 2492.13 327.5 2506.79 332.5C2521.46 337.5 2533.13 344.667 2541.79 354C2550.79 363.333 2557.13 374.667 2560.79 388C2564.46 401.333 2566.29 416.167 2566.29 432.5V587.5C2555.63 589.833 2540.79 592.5 2521.79 595.5C2502.79 598.833 2479.79 600.5 2452.79 600.5C2435.79 600.5 2420.29 599 2406.29 596C2392.63 593 2380.79 588.167 2370.79 581.5C2360.79 574.5 2353.13 565.5 2347.79 554.5C2342.46 543.5 2339.79 530 2339.79 514C2339.79 498.667 2342.79 485.667 2348.79 475C2355.13 464.333 2363.46 455.833 2373.79 449.5C2384.13 443.167 2395.96 438.667 2409.29 436C2422.63 433 2436.46 431.5 2450.79 431.5C2460.46 431.5 2468.96 432 2476.29 433C2483.96 433.667 2490.13 434.667 2494.79 436V429C2494.79 416.333 2490.96 406.167 2483.29 398.5C2475.63 390.833 2462.29 387 2443.29 387C2430.63 387 2418.13 388 2405.79 390C2393.46 391.667 2382.79 394.167 2373.79 397.5L2364.29 337.5C2368.63 336.167 2373.96 334.833 2380.29 333.5C2386.96 331.833 2394.13 330.5 2401.79 329.5C2409.46 328.167 2417.46 327.167 2425.79 326.5C2434.46 325.5 2443.13 325 2451.79 325ZM2708.16 595H2633.66V332H2708.16V595ZM2715.16 256C2715.16 269.667 2710.66 280.5 2701.66 288.5C2692.99 296.167 2682.66 300 2670.66 300C2658.66 300 2648.16 296.167 2639.16 288.5C2630.49 280.5 2626.16 269.667 2626.16 256C2626.16 242.333 2630.49 231.667 2639.16 224C2648.16 216 2658.66 212 2670.66 212C2682.66 212 2692.99 216 2701.66 224C2710.66 231.667 2715.16 242.333 2715.16 256ZM2883.19 600C2861.52 599.667 2843.86 597.333 2830.19 593C2816.86 588.667 2806.19 582.667 2798.19 575C2790.52 567 2785.19 557.5 2782.19 546.5C2779.52 535.167 2778.19 522.5 2778.19 508.5V219L2852.69 207V493.5C2852.69 500.167 2853.19 506.167 2854.19 511.5C2855.19 516.833 2857.02 521.333 2859.69 525C2862.69 528.667 2866.86 531.667 2872.19 534C2877.52 536.333 2884.69 537.833 2893.69 538.5L2883.19 600Z" fill="#326CE5"/>
<defs>
<clipPath id="clip0_1209_2226">
<rect width="777" height="753.918" fill="white"/>
</clipPath>
</defs>
</svg>
