<svg xmlns="http://www.w3.org/2000/svg" width="68.165" height="66.143" viewBox="0 0 18.035 17.5"><path d="M-6.85 4.272a1.12 1.11 0 0 0-.428.109l-5.852 2.796a1.12 1.11 0 0 0-.606.753l-1.444 6.282a1.12 1.11 0 0 0 .152.85 1.12 1.11 0 0 0 .064.089l4.05 5.037a1.12 1.11 0 0 0 .876.417l6.496-.001a1.12 1.11 0 0 0 .875-.417l4.049-5.038a1.12 1.11 0 0 0 .216-.939L.152 7.93a1.12 1.11 0 0 0-.605-.753L-6.307 4.38a1.12 1.11 0 0 0-.542-.109Z" style="fill:#326ce5;fill-opacity:1;stroke:none;stroke-width:0;stroke-miterlimit:4;stroke-dasharray:none;stroke-opacity:1" transform="matrix(1.01489 0 0 1.01489 15.945 -3.873)"/><path d="M-6.852 3.818a1.181 1.172 0 0 0-.452.115l-6.18 2.951a1.181 1.172 0 0 0-.638.795l-1.524 6.63a1.181 1.172 0 0 0 .16.9 1.181 1.172 0 0 0 .067.093l4.276 5.317a1.181 1.172 0 0 0 .924.44h6.858a1.181 1.172 0 0 0 .923-.44L1.837 15.3a1.181 1.172 0 0 0 .228-.99L.54 7.677a1.181 1.172 0 0 0-.64-.795l-6.178-2.95a1.181 1.172 0 0 0-.573-.115Zm.003.455a1.12 1.11 0 0 1 .542.108l5.853 2.795a1.12 1.11 0 0 1 .606.753l1.446 6.281a1.12 1.11 0 0 1-.216.94l-4.05 5.037a1.12 1.11 0 0 1-.875.417l-6.496.001a1.12 1.11 0 0 1-.875-.417l-4.05-5.037a1.12 1.11 0 0 1-.064-.088 1.12 1.11 0 0 1-.152-.851l1.444-6.281a1.12 1.11 0 0 1 .605-.753l5.853-2.797a1.12 1.11 0 0 1 .429-.108z" style="color:#000;font-style:normal;font-variant:normal;font-weight:400;font-stretch:normal;font-size:medium;line-height:normal;font-family:Sans;-inkscape-font-specification:Sans;text-indent:0;text-align:start;text-decoration:none;text-decoration-line:none;letter-spacing:normal;word-spacing:normal;text-transform:none;direction:ltr;writing-mode:lr-tb;baseline-shift:baseline;text-anchor:start;display:inline;overflow:visible;visibility:visible;fill:#fff;fill-opacity:1;fill-rule:nonzero;stroke:none;stroke-width:0;stroke-miterlimit:4;stroke-dasharray:none;marker:none;enable-background:accumulate" transform="matrix(1.01489 0 0 1.01489 15.945 -3.873)"/><path d="M8.053 5.13h6.525v4.582H8.053z" style="fill:none;fill-rule:evenodd;stroke:#fff;stroke-width:.52914584;stroke-linecap:square;stroke-linejoin:round;stroke-miterlimit:10;stroke-dasharray:1.58743761,1.58743761;stroke-dashoffset:3.66698074;stroke-opacity:1" transform="translate(-.724 -.082)"/><path d="M6.514 6.54h6.525v4.584H6.514z" style="fill:#326ce5;fill-opacity:1;fill-rule:evenodd;stroke:#fff;stroke-width:.52914584;stroke-linecap:square;stroke-linejoin:round;stroke-miterlimit:10;stroke-dasharray:1.58743761,1.58743761;stroke-dashoffset:3.87863898;stroke-opacity:1" transform="translate(-.724 -.082)"/><path d="M4.976 7.952H11.5v4.583H4.976z" style="fill:#fff;fill-rule:evenodd;stroke:none;stroke-width:.26458332;stroke-linecap:square;stroke-miterlimit:10" transform="translate(-.724 -.082)"/><path d="M4.976 7.952H11.5v4.583H4.976z" style="fill:none;fill-rule:evenodd;stroke:#fff;stroke-width:.5291667;stroke-linecap:butt;stroke-linejoin:round;stroke-miterlimit:10;stroke-opacity:1" transform="translate(-.724 -.082)"/><path d="M5.509 9.226c0-.43 1.222-.777 2.729-.777 1.507 0 2.73.348 2.73.777 0 .43-1.223.778-2.73.778s-2.73-.349-2.73-.778z" style="fill:#fff;fill-opacity:1;fill-rule:evenodd;stroke:none;stroke-width:.26458332;stroke-linecap:square;stroke-miterlimit:10" transform="translate(-.724 -.082)"/><path fill="none" d="M10.967 9.226c0 .43-1.222.778-2.73.778-1.506 0-2.728-.349-2.728-.778 0-.43 1.222-.777 2.729-.777 1.507 0 2.73.348 2.73.777v2.103c0 .43-1.223.778-2.73.778s-2.73-.348-2.73-.778V9.226" style="fill:#000;fill-opacity:0;fill-rule:evenodd;stroke:none;stroke-width:.26458332;stroke-linecap:square;stroke-miterlimit:10" transform="translate(-.724 -.082)"/><path d="M10.967 9.226c0 .43-1.222.778-2.73.778-1.506 0-2.728-.349-2.728-.778 0-.43 1.222-.777 2.729-.777 1.507 0 2.73.348 2.73.777v2.103c0 .43-1.223.778-2.73.778s-2.73-.348-2.73-.778V9.226" style="fill:none;fill-rule:evenodd;stroke:#326ce5;stroke-width:.5291667;stroke-linecap:butt;stroke-linejoin:round;stroke-miterlimit:10;stroke-opacity:1" transform="translate(-.724 -.082)"/></svg>